<svg width="480" height="129" viewBox="0 0 480 129" fill="none" xmlns="http://www.w3.org/2000/svg">
<path d="M7.0625 128.805C10.6484 128.805 13.1797 126.133 13.1797 122.266V91.1172H13.4609C17.8203 99.1328 26.2578 104.266 36.7344 104.266C55.1562 104.266 67.7422 89.3594 67.7422 66.4375C67.7422 43.5156 55.0859 28.6094 36.4531 28.6094C25.8359 28.6094 17.3281 34.0234 12.8281 42.25H12.5469V34.7969C12.5469 31.1406 10.1562 28.6094 6.78125 28.6094C3.33594 28.6094 0.945312 31.1406 0.945312 34.7969V122.266C0.945312 126.133 3.47656 128.805 7.0625 128.805ZM34.0625 93.5078C21.5469 93.5078 13.1094 82.75 13.1094 66.4375C13.1094 50.1953 21.5469 39.3672 34.0625 39.3672C47.0703 39.3672 55.2266 49.9141 55.2266 66.4375C55.2266 83.0312 47.0703 93.5078 34.0625 93.5078ZM110.422 104.266C130.602 104.266 144.242 89.7109 144.242 66.4375C144.242 43.0938 130.602 28.6094 110.422 28.6094C90.1719 28.6094 76.5312 43.0938 76.5312 66.4375C76.5312 89.7109 90.1719 104.266 110.422 104.266ZM110.422 93.5078C97.4844 93.5078 88.9766 83.6641 88.9766 66.4375C88.9766 49.2109 97.4844 39.3672 110.422 39.3672C123.359 39.3672 131.797 49.2109 131.797 66.4375C131.797 83.6641 123.359 93.5078 110.422 93.5078ZM184.32 104.266C195.781 104.266 203.375 98.6406 207.383 89.9219H207.594V98.2891C207.594 101.875 210.406 104.266 213.852 104.266C217.367 104.266 219.828 101.805 219.828 98.2891V6.8125C219.828 2.94531 217.297 0.273438 213.711 0.273438C210.125 0.273438 207.594 2.94531 207.594 6.8125V41.7578H207.312C202.953 33.7422 194.516 28.6094 184.039 28.6094C165.617 28.6094 153.031 43.5156 153.031 66.4375C153.031 89.3594 165.688 104.266 184.32 104.266ZM186.641 93.5078C173.703 93.5078 165.547 83.0312 165.547 66.4375C165.547 49.9141 173.703 39.3672 186.641 39.3672C199.227 39.3672 207.664 50.125 207.664 66.4375C207.664 82.8203 199.227 93.5078 186.641 93.5078ZM266.516 104.266C279.805 104.266 291.406 96.9531 294.922 86.8281C295.273 85.7031 295.484 84.6484 295.484 83.7344C295.484 80.5703 293.375 78.3906 290.211 78.3906C287.539 78.3906 286.203 79.375 284.445 82.6797C280.648 89.7109 275.305 93.5078 266.516 93.5078C253.93 93.5078 245.211 83.2422 245.211 66.4375C245.211 50.0547 253.789 39.3672 266.516 39.3672C274.953 39.3672 280.508 42.9531 284.375 50.1953C286.062 53.3594 287.539 54.4844 290.211 54.4844C293.375 54.4844 295.414 52.375 295.414 49.1406C295.414 48.3672 295.273 47.4531 294.992 46.5391C292.18 36.4141 280.156 28.6094 266.375 28.6094C246.125 28.6094 232.766 43.5859 232.766 66.5781C232.766 89.7109 246.266 104.266 266.516 104.266ZM329.797 104.266C339.641 104.266 348.992 98.7812 353.352 90.4141H353.633V98.0781C353.633 101.734 356.023 104.266 359.469 104.266C362.844 104.266 365.234 101.734 365.234 98.0781V52.4453C365.234 37.8906 354.406 28.6094 337.25 28.6094C325.367 28.6094 314.68 33.8828 310.531 41.8984C309.547 43.6562 309.055 45.4141 309.055 46.9609C309.055 50.2656 311.305 52.4453 314.469 52.4453C316.789 52.4453 318.406 51.5312 319.531 49.4922C323.609 42.25 329.023 39.3672 336.969 39.3672C347.094 39.3672 353 44.7109 353 53.6406V59.7578L331.977 60.9531C315.102 61.9375 305.469 69.8125 305.469 82.3281C305.469 95.4766 315.242 104.266 329.797 104.266ZM332.539 93.8594C323.75 93.8594 317.914 89.2891 317.914 82.3281C317.914 75.4375 323.539 71.0781 333.383 70.4453L353 69.25V75.2266C353 85.7734 344.07 93.8594 332.539 93.8594ZM406.156 104.266C423.523 104.266 435.266 95.4766 435.266 82.3984C435.266 71.6406 429.641 66.2969 414.383 62.5703L403.484 59.8984C395.469 57.9297 391.531 54.4141 391.531 49.3516C391.531 43.0938 397.648 38.6641 406.438 38.6641C413.891 38.6641 418.602 41.3359 421.766 47.4531C423.102 49.9844 424.789 50.7578 427.18 50.7578C430.133 50.7578 431.961 48.8594 431.961 45.9766C431.961 45.4141 431.891 44.8516 431.75 44.1484C429.852 35.3594 419.164 28.6094 407.141 28.6094C390.617 28.6094 379.438 37.2578 379.438 49.9844C379.438 60.25 386.258 66.9297 400.391 70.4453L411.57 73.2578C419.797 75.2969 422.82 78.1094 422.82 83.3828C422.82 90.2031 416.492 94.2812 407.141 94.2812C397.789 94.2812 393.43 91.3984 389.773 85C388.367 82.4688 386.609 81.3438 384.43 81.3438C381.266 81.3438 378.875 83.1719 378.875 86.4062C378.875 87.3203 379.016 88.2344 379.438 89.2891C382.953 98.4297 393.148 104.266 406.156 104.266ZM451.789 86.125C451.789 97.7969 457.695 103.562 469.508 103.562H470.281C477.102 103.562 479.211 101.594 479.211 97.8672C479.211 94.9844 477.383 93.3672 473.375 93.0859L472.32 93.0156C466.203 92.5938 464.023 89.6406 464.023 83.4531V39.9297H473.445C476.961 39.9297 478.93 38.1016 478.93 34.8672C478.93 31.7031 476.961 29.875 473.445 29.875H464.023V17.3594C464.023 13.4922 461.492 10.8203 457.906 10.8203C454.32 10.8203 451.789 13.4922 451.789 17.3594V29.875H445.672C442.156 29.875 440.188 31.7031 440.188 34.8672C440.188 38.1016 442.156 39.9297 445.672 39.9297H451.789V86.125Z" fill="#383836"/>
</svg>
